
        <svg xmlns="http://www.w3.org/2000/svg" xmlns:xlink="http://www.w3.org/1999/xlink" version="1.1" width="3171.4285714285716" 
        height="1143.6551075190218" viewBox="0 0 3171.4285714285716 1143.6551075190218">
			<rect fill="#34b27d" width="3171.4285714285716" height="1143.6551075190218"/>
			<g transform="scale(8.571428571428571) translate(10, 10)">
				<defs id="SvgjsDefs1758"></defs><g id="SvgjsG1759" featureKey="symbolFeature-0" transform="matrix(1.4374406617681619,0,0,1.4374406617681619,103.12765744215012,-21.87126267057294)" fill="#5b3016"><path xmlns="http://www.w3.org/2000/svg" d="M98.535,33.739c0,0,0.332-7.743,0.048-8.03c-0.283-0.286-26.75,0.572-26.75,0.572L50,26.568l-21.834-0.286  c0,0-26.464-0.858-26.749-0.572c-0.284,0.287,0.05,8.03,0.05,8.03s-0.458-0.61,1.375,2.517c1.83,3.125,1.983,17.848,10.146,20.365  c8.162,2.52,17.163,2.673,22.806-0.381c0,0,7.323-4.196,10.069-14.416c0,0,0.754-4.899,4.137-4.956  c3.383,0.057,4.141,4.956,4.141,4.956C56.886,52.044,64.21,56.24,64.21,56.24c5.643,3.054,14.645,2.9,22.805,0.381  c8.165-2.515,8.315-17.237,10.148-20.365C98.989,33.129,98.535,33.739,98.535,33.739z M34.648,53.952  c-2.517,1.525-6.866,2.745-17.011,1.217C7.492,53.648,7.34,41.288,8.331,34.958c0.993-6.332,15.791-5.493,15.791-5.493  c16.553,0.385,17.238,5.569,17.238,5.569C43.727,44.798,37.167,52.428,34.648,53.952z M82.361,55.169  c-10.145,1.528-14.495,0.309-17.01-1.217c-2.517-1.524-9.078-9.154-6.712-18.917c0,0,0.686-5.186,17.235-5.568  c0,0,14.802-0.839,15.794,5.493C92.657,41.29,92.507,53.648,82.361,55.169z M94.337,27.721c0,0-12.215,0.343-23.844,0.508  C60.488,28.371,50.908,28.358,50,28.331c-0.909,0.027-10.485,0.042-20.491-0.102c-11.631-0.168-23.848-0.508-23.848-0.508  c-0.608-1.153,0.306-1.153,0.306-1.153C8.132,26.923,48.298,27.28,50,27.294c1.704-0.014,41.865-0.372,44.032-0.727  C94.032,26.568,94.946,26.568,94.337,27.721z"></path></g><g id="SvgjsG1760" featureKey="nameFeature-0" transform="matrix(2.9731939942456065,0,0,2.9731939942456065,-0.004386321774129365,53.2489763588847)" fill="#5b3016"><path d="M21.2 4.880000000000001 c0.34 0 0.6 0.26 0.6 0.58 l0 11.12 c0 1.88 -1.54 3.42 -3.44 3.42 c-1.88 0 -3.44 -1.54 -3.42 -3.42 l0 -8.26 c0 -0.3 -0.26 -0.56 -0.56 -0.56 s-0.54 0.26 -0.54 0.56 l0 8.24 c0 1.22 -0.66 2.36 -1.72 2.98 c-1.58 0.92 -3.64 0.38 -4.68 -1.22 l-7.24 -11.26 c-0.4 -0.7 -0.18 -1.58 0.52 -1.98 c0.64 -0.38 1.56 -0.24 1.96 0.5 l7.2 11.16 c0.12 0.22 0.4 0.48 0.78 0.3 c0.18 -0.08 0.28 -0.24 0.3 -0.46 l0 -8.26 c0 -1.9 1.54 -3.44 3.42 -3.44 c1.9 0 3.44 1.54 3.44 3.44 l0 8.26 c0 0.32 -0.26 0.58 -0.6 0.58 c-0.32 0 -0.6 -0.26 -0.6 -0.58 l0 -8.26 c0 -1.24 -1 -2.24 -2.24 -2.24 c-1.22 0 -2.24 1 -2.24 2.24 l0 8.26 c0 0.62 -0.34 1.2 -0.86 1.5 c-0.94 0.54 -1.94 0.04 -2.42 -0.68 l-7.22 -11.22 c-0.08 -0.12 -0.18 -0.22 -0.36 -0.1 c-0.14 0.1 -0.12 0.26 -0.06 0.34 l7.22 11.24 c0.7 1.08 2.04 1.46 3.08 0.86 c0.7 -0.4 1.12 -1.14 1.12 -1.94 l0 -8.26 c0 -0.96 0.78 -1.74 1.74 -1.74 s1.74 0.78 1.74 1.74 l0 8.26 c0 1.22 1.02 2.24 2.24 2.24 c1.24 0 2.24 -1.02 2.24 -2.24 l0 -11.12 c0 -0.32 0.28 -0.58 0.6 -0.58 z M24.000000000000004 4.880000000000001 c0.34 0 0.62 0.28 0.62 0.62 l0 13.9 c0 0.34 -0.28 0.6 -0.62 0.6 c-0.32 0 -0.6 -0.26 -0.6 -0.6 l0 -13.9 c0 -0.34 0.28 -0.62 0.6 -0.62 z M36.32 4.880000000000001 c0.34 0 0.6 0.28 0.6 0.62 l0 5.78 c0 0.96 -0.76 1.74 -1.72 1.78 l0 6.34 c0 0.34 -0.28 0.6 -0.6 0.6 c-0.34 0 -0.62 -0.26 -0.62 -0.6 l0 -6.34 l-7.08 0 c-0.3 0 -0.56 0.24 -0.56 0.56 l0 5.78 c0 0.34 -0.26 0.6 -0.6 0.6 s-0.62 -0.26 -0.62 -0.6 l0 -5.78 c0 -0.98 0.8 -1.78 1.78 -1.78 l7.08 0 l0 -6.34 c0 -0.34 0.28 -0.62 0.62 -0.62 c0.32 0 0.6 0.28 0.6 0.62 l0 6.34 c0.28 -0.04 0.5 -0.28 0.5 -0.56 l0 -5.78 c0 -0.34 0.28 -0.62 0.62 -0.62 z M42.02 4.880000000000001 l7.42 0 c0.8 0 1.46 0.66 1.46 1.46 s-0.62 1.48 -1.42 1.48 l-7.46 0 c-0.3 0 -0.56 0.24 -0.56 0.56 c0 0.3 0.26 0.56 0.56 0.56 c0.34 0 0.62 0.26 0.62 0.6 s-0.28 0.62 -0.62 0.62 c-0.98 0 -1.76 -0.8 -1.76 -1.78 s0.78 -1.78 1.76 -1.78 l7.42 0 c0.14 0 0.24 -0.12 0.24 -0.26 s-0.1 -0.24 -0.24 -0.24 l-7.42 0 c-1.26 0 -2.28 1.02 -2.28 2.28 s1.02 2.28 2.28 2.28 l5.38 0 c0.98 0 1.78 0.8 1.78 1.8 c0 0.98 -0.8 1.76 -1.78 1.76 l-5.38 0 c-1.26 0 -2.28 1.02 -2.28 2.28 s1.02 2.28 2.28 2.28 l8.26 0 c0.34 0 0.62 0.28 0.62 0.62 s-0.28 0.6 -0.62 0.6 l-8.26 0 c-1.94 0 -3.5 -1.56 -3.5 -3.5 c0 -1.92 1.56 -3.5 3.5 -3.5 l5.38 0 c0.32 0 0.56 -0.24 0.56 -0.54 c0 -0.34 -0.24 -0.58 -0.56 -0.58 l-5.38 0 c-1.92 0 -3.5 -1.58 -3.5 -3.5 c0 -1.94 1.58 -3.5 3.5 -3.5 z M42.02 14.74 l5.38 0 c0.34 0 0.62 0.26 0.62 0.6 s-0.28 0.62 -0.62 0.62 l-5.38 0 c-0.3 0 -0.56 0.24 -0.56 0.54 c0 0.32 0.26 0.56 0.56 0.56 c0.34 0 0.6 0.28 0.6 0.62 c0 0.32 -0.26 0.6 -0.6 0.6 c-0.98 0 -1.78 -0.8 -1.78 -1.78 s0.8 -1.76 1.78 -1.76 z M53.1 4.880000000000001 l7.28 0 c2.48 0.02 4.48 2.06 4.48 4.54 c0 2.32 -1.78 4.24 -4.04 4.48 l3.62 3.6 c0.54 0.54 0.54 1.54 0 2.08 s-1.48 0.58 -2.04 0.02 c-0.52 -0.54 -2.52 -2.52 -2.52 -2.52 c-0.24 -0.24 -0.24 -0.62 0 -0.86 s0.62 -0.24 0.86 0 l2.48 2.48 c0.1 0.1 0.26 0.12 0.36 0.02 s0.12 -0.24 0 -0.36 l-4.64 -4.62 c-0.12 -0.12 -0.18 -0.26 -0.18 -0.42 c0 -0.34 0.28 -0.62 0.62 -0.62 l0.96 0 c1.82 0 3.32 -1.48 3.32 -3.3 s-1.5 -3.3 -3.32 -3.3 l-6.62 0 l0 3.3 c0 0.34 -0.28 0.6 -0.62 0.6 s-0.6 -0.26 -0.6 -0.6 l0 -3.92 c0 -0.32 0.26 -0.6 0.6 -0.6 z M60.36 6.6 c1.54 0 2.8 1.26 2.8 2.8 s-1.26 2.78 -2.8 2.78 l-3.34 0 c-1.82 0 -3.3 1.48 -3.3 3.3 l0 3.92 c0 0.32 -0.28 0.6 -0.62 0.6 s-0.6 -0.28 -0.6 -0.6 l0 -3.92 c0 -2.5 2.02 -4.52 4.52 -4.52 l3.34 0 c0.88 0 1.58 -0.7 1.58 -1.56 c0 -0.88 -0.7 -1.58 -1.58 -1.58 c-0.34 0 -0.6 -0.26 -0.6 -0.6 s0.26 -0.62 0.6 -0.62 z M69.96000000000001 4.880000000000001 l7.42 0 c0.8 0 1.46 0.66 1.46 1.46 s-0.62 1.48 -1.42 1.48 l-7.46 0 c-0.3 0 -0.56 0.24 -0.56 0.56 c0 0.3 0.26 0.56 0.56 0.56 c0.34 0 0.62 0.26 0.62 0.6 s-0.28 0.62 -0.62 0.62 c-0.98 0 -1.76 -0.8 -1.76 -1.78 s0.78 -1.78 1.76 -1.78 l7.42 0 c0.14 0 0.24 -0.12 0.24 -0.26 s-0.1 -0.24 -0.24 -0.24 l-7.42 0 c-1.26 0 -2.28 1.02 -2.28 2.28 s1.02 2.28 2.28 2.28 l5.38 0 c0.98 0 1.78 0.8 1.78 1.8 c0 0.98 -0.8 1.76 -1.78 1.76 l-5.38 0 c-1.26 0 -2.28 1.02 -2.28 2.28 s1.02 2.28 2.28 2.28 l8.26 0 c0.34 0 0.62 0.28 0.62 0.62 s-0.28 0.6 -0.62 0.6 l-8.26 0 c-1.94 0 -3.5 -1.56 -3.5 -3.5 c0 -1.92 1.56 -3.5 3.5 -3.5 l5.38 0 c0.32 0 0.56 -0.24 0.56 -0.54 c0 -0.34 -0.24 -0.58 -0.56 -0.58 l-5.38 0 c-1.92 0 -3.5 -1.58 -3.5 -3.5 c0 -1.94 1.58 -3.5 3.5 -3.5 z M69.96000000000001 14.74 l5.38 0 c0.34 0 0.62 0.26 0.62 0.6 s-0.28 0.62 -0.62 0.62 l-5.38 0 c-0.3 0 -0.56 0.24 -0.56 0.54 c0 0.32 0.26 0.56 0.56 0.56 c0.34 0 0.6 0.28 0.6 0.62 c0 0.32 -0.26 0.6 -0.6 0.6 c-0.98 0 -1.78 -0.8 -1.78 -1.78 s0.8 -1.76 1.78 -1.76 z M87.14 4.880000000000001 l12.86 0 c0.32 0 0.6 0.28 0.6 0.6 c0 0.34 -0.28 0.62 -0.6 0.62 l-12.86 0 c-0.32 0 -0.6 -0.28 -0.6 -0.62 c0 -0.32 0.28 -0.6 0.6 -0.6 z M87.14 6.6 l4.4 0 c0.98 0 1.78 0.8 1.78 1.78 l0 11.02 c0 0.32 -0.28 0.6 -0.62 0.6 c-0.32 0 -0.6 -0.28 -0.6 -0.6 l0 -11.02 c0 -0.3 -0.26 -0.56 -0.56 -0.56 l-4.4 0 c-0.32 0 -0.6 -0.26 -0.6 -0.6 s0.28 -0.62 0.6 -0.62 z M95.60000000000001 6.6 l4.4 0 c0.32 0 0.6 0.28 0.6 0.62 s-0.28 0.6 -0.6 0.6 l-4.4 0 c-0.3 0 -0.56 0.26 -0.56 0.56 l0 11.02 c0 0.32 -0.26 0.6 -0.6 0.6 s-0.62 -0.28 -0.62 -0.6 l0 -11.02 c0 -0.98 0.8 -1.78 1.78 -1.78 z M109.92 6.380000000000001 c1.62 0 3.14 0.62 4.28 1.76 c1.14 1.16 1.76 2.68 1.76 4.3 c0 0.32 -0.26 0.6 -0.6 0.6 c-0.32 0 -0.6 -0.28 -0.6 -0.6 c0 -1.3 -0.5 -2.52 -1.42 -3.44 c-0.92 -0.9 -2.14 -1.42 -3.42 -1.42 c-1.3 0 -2.52 0.52 -3.44 1.42 c-0.92 0.92 -1.42 2.14 -1.42 3.44 c0 0.8 -0.66 1.48 -1.48 1.48 s-1.48 -0.68 -1.48 -1.48 c0 -2.1 0.82 -4.06 2.28 -5.52 c3.06 -3.06 8 -3.06 11.06 0 c1.48 1.46 2.28 3.42 2.28 5.52 c0 2.08 -0.8 4.04 -2.28 5.52 s-3.44 2.28 -5.52 2.28 c-0.34 0 -0.62 -0.26 -0.62 -0.6 s0.28 -0.6 0.62 -0.6 c1.76 0 3.42 -0.7 4.66 -1.94 s1.94 -2.9 1.94 -4.66 s-0.7 -3.42 -1.94 -4.68 c-2.58 -2.56 -6.76 -2.56 -9.34 0 c-1.24 1.26 -1.92 2.92 -1.92 4.68 c0 0.18 0.1 0.3 0.28 0.3 c0.16 0 0.26 -0.1 0.26 -0.3 c0 -1.62 0.62 -3.14 1.76 -4.3 c1.14 -1.14 2.68 -1.76 4.3 -1.76 z"></path></g>
			</g>
		</svg>
	