
        <svg xmlns="http://www.w3.org/2000/svg" xmlns:xlink="http://www.w3.org/1999/xlink" version="1.1" width="3132.458678047319" 
        height="561.624794920633" viewBox="0 0 3132.458678047319 561.624794920633">
			
			<g transform="scale(6.622933902365954) translate(10, 10)">
				<defs id="SvgjsDefs6015"><linearGradient id="SvgjsLinearGradient6022"><stop id="SvgjsStop6023" stop-color="#b98947" offset="0"></stop><stop id="SvgjsStop6024" stop-color="#faf0a1" offset="1"></stop></linearGradient><linearGradient id="SvgjsLinearGradient6025"><stop id="SvgjsStop6026" stop-color="#905e26" offset="0"></stop><stop id="SvgjsStop6027" stop-color="#f5ec9b" offset="0.5"></stop><stop id="SvgjsStop6028" stop-color="#905e26" offset="1"></stop></linearGradient><linearGradient id="SvgjsLinearGradient6029"><stop id="SvgjsStop6030" stop-color="#905e26" offset="0"></stop><stop id="SvgjsStop6031" stop-color="#f5ec9b" offset="0.5"></stop><stop id="SvgjsStop6032" stop-color="#905e26" offset="1"></stop></linearGradient></defs><g id="SvgjsG6016" featureKey="nameLeftFeature-0" transform="matrix(2.4999999006589295,0,0,2.4999999006589295,-2.249998956918758,0.5000000993410687)" fill="url(#SvgjsLinearGradient6022)"><path d="M12.96 18.5 c-1.24 1.12 -2.9 1.7 -4.76 1.7 c-3.92 0 -7.3 -2.94 -7.3 -7.2 s3.38 -7.2 7.3 -7.2 c1.84 0 3.48 0.6 4.68 1.66 l-1.76 1.98 c-0.74 -0.52 -1.74 -0.9 -2.76 -0.9 c-2.52 0 -4.42 1.86 -4.42 4.46 s1.9 4.46 4.42 4.46 c1.06 0 2.1 -0.4 2.86 -1 z M21.82 5.800000000000001 c3.9 0 7.26 2.94 7.26 7.2 s-3.36 7.2 -7.26 7.2 s-7.26 -2.94 -7.26 -7.2 s3.36 -7.2 7.26 -7.2 z M21.82 17.46 c2.36 0 4.22 -1.86 4.22 -4.46 s-1.86 -4.46 -4.22 -4.46 s-4.22 1.86 -4.22 4.46 s1.86 4.46 4.22 4.46 z M36.18 6 c3.98 0 7.1 3.12 7.1 6.92 c0 3.96 -3.12 7.08 -7.1 7.08 l-5 0 l0 -14 l5 0 z M36.16 17.240000000000002 c2.68 0 4.12 -1.94 4.12 -4.32 c0 -2.22 -1.44 -4.16 -4.12 -4.16 l-2.06 0 l0 8.48 l2.06 0 z M48.199999999999996 17.32 l5.92 0 l0 2.68 l-6.32 0 l-2.52 0 l0 -14 l2.92 0 l5.74 0 l0 2.68 l-5.74 0 l0 2.96 l4.34 0 l0 2.64 l-4.34 0 l0 3.04 z"></path></g><g id="SvgjsG6017" featureKey="inlineSymbolFeature-0" transform="matrix(2.459021621875147,0,0,2.459021621875147,152.6877069555837,0.2876412926222973)" fill="url(#SvgjsLinearGradient6025)"><title xmlns="http://www.w3.org/2000/svg">programming</title><path xmlns="http://www.w3.org/2000/svg" d="M197,101l-7.4,23a1.4,1.4,0,0,1-1.3,1h-0.4a1.4,1.4,0,0,1-.9-1.8l7.4-23A1.4,1.4,0,1,1,197,101Zm-14.3,18.5-10.5-7,10.7-8.1a3,3,0,1,0-3.6-4.8l-14,10.7a3,3,0,0,0,.2,4.9l14,9.3A3,3,0,1,0,182.7,119.5Zm36-10.7-14-9.3a3,3,0,0,0-3.3,5l10.5,7-10.7,8.1a3,3,0,0,0,3.6,4.8l14-10.7A3,3,0,0,0,218.7,108.8Z" transform="translate(-164 -99)"></path></g><g id="SvgjsG6018" featureKey="nameRightFeature-0" transform="matrix(2.5714285714285716,0,0,2.5714285714285716,291.48571600232805,-0.4285714285714306)" fill="url(#SvgjsLinearGradient6029)"><path d="M14.92 12.24 c1.48 0.4 2.88 1.72 2.88 3.66 c0 2.54 -1.6 4.1 -5.08 4.1 l-5.52 0 l0 -14 l5.22 0 c2.9 0 4.36 1.64 4.36 3.52 c0 1.48 -0.96 2.32 -1.86 2.72 z M12.14 8.56 l-2.02 0 l0 2.82 l2.02 0 c1.24 0 1.74 -0.58 1.74 -1.42 c0 -0.9 -0.58 -1.4 -1.74 -1.4 z M12.559999999999999 17.44 c1.6 0 2.32 -0.66 2.32 -1.9 c0 -1.06 -0.72 -1.8 -2.44 -1.8 l-2.32 0 l0 3.7 l2.44 0 z M30.72 20 l-3.1 0 l-2.98 -4.66 l-0.04 0 l-1.98 0 l0 4.66 l-2.92 0 l0 -14 l4.9 0 c3.14 0 5.18 1.9 5.18 4.76 c0 1.9 -0.92 3.32 -2.48 4.04 z M22.62 8.68 l0 4.14 l1.8 0 c1.44 0 2.44 -0.56 2.44 -2.06 c0 -1.48 -1 -2.08 -2.44 -2.08 l-1.8 0 z M35.44 17.32 l5.92 0 l0 2.68 l-6.32 0 l-2.52 0 l0 -14 l2.92 0 l5.74 0 l0 2.68 l-5.74 0 l0 2.96 l4.34 0 l0 2.64 l-4.34 0 l0 3.04 z M62.8 6 l-4.6 14 l-2.1 0 l-3.28 -8.86 l-3.26 8.86 l-2.1 0 l-4.6 -14 l3.08 0 l2.68 8.3 l3.06 -8.3 l2.3 0 l3.06 8.3 l2.68 -8.3 l3.08 0 z"></path></g>
			</g>
		</svg>
	