
        <svg xmlns="http://www.w3.org/2000/svg" xmlns:xlink="http://www.w3.org/1999/xlink" version="1.1" width="3130.000185385059" 
        height="780.0011123103554" viewBox="0 0 3130.000185385059 780.0011123103554">
			
			<g transform="scale(6.5000092692529625) translate(10, 10)">
				<defs id="SvgjsDefs1096"></defs><g id="SvgjsG1097" featureKey="sloganFeature-0" transform="matrix(1.4423077452112252,0,0,1.4423077452112252,2.7692323563367536,70.95192289176072)" fill="#34374c"><path d="M13.9 7.76 l2.92 0 l-2.26 12.24 l-4.44 0 l-1.6 -7.14 l-1.7 7.14 l-4.68 0 l-1.98 -12.24 l3.06 0 l1.38 9.16 l1.8 -7.14 l4.26 0 l1.72 7.14 z M28.3095 7.76 l3 0 l0 12.24 l-3 0 l0 -4.72 l-4.4 0 l0 4.72 l-3 0 l0 -12.24 l3 0 l0 4.74 l4.4 0 l0 -4.74 z M36.379000000000005 7.76 l9.1 0 l0 2.78 l-6.1 0 l0 1.96 l4.9 0 l0 2.78 l-4.9 0 l0 1.94 l6.1 0 l0 2.78 l-9.1 0 l0 -12.24 z M52.968500000000006 10.58 l0 2.92 l2.8 0 c0.92 0 1.46 -0.54 1.46 -1.46 s-0.54 -1.46 -1.46 -1.46 l-2.8 0 z M57.508500000000005 15.48 c0.56 0.76 1.12 1.52 1.7 2.26 c0.56 0.74 1.12 1.5 1.68 2.26 l-3.66 0 c-0.72 -0.96 -1.42 -1.92 -2.12 -2.88 c-0.7 -0.94 -1.42 -1.9 -2.14 -2.86 l0 5.74 l-3 0 l0 -12.24 l5.8 0 c2.28 0 4.22 1.74 4.22 4.04 c0 1.62 -1 3.04 -2.48 3.68 z M64.938 7.76 l9.1 0 l0 2.78 l-6.1 0 l0 1.96 l4.9 0 l0 2.78 l-4.9 0 l0 1.94 l6.1 0 l0 2.78 l-9.1 0 l0 -12.24 z M95.337 16.58 l0 3.08 c-1.24 0.34 -2.48 0.48 -3.76 0.48 c-3.76 0 -6.28 -2.58 -6.28 -6.24 c0 -3.76 2.62 -6.24 6.26 -6.24 c1.26 0 2.58 0.1 3.78 0.48 l0 3.08 c-0.98 -0.48 -2.52 -0.66 -3.6 -0.66 c-2.44 0 -3.44 1 -3.44 3.32 c0 2.46 1.18 3.36 3.46 3.36 c1.02 0 2.68 -0.16 3.58 -0.66 z M105.6465 17.32 c2.18 0 3.3 -1.4 3.3 -3.44 c0 -2.16 -1.2 -3.44 -3.3 -3.44 c-2.2 0 -3.3 1.4 -3.3 3.44 c0 2.12 1.22 3.44 3.3 3.44 z M105.6465 20.1 c-3.76 0 -6.3 -2.56 -6.3 -6.22 c0 -3.78 2.66 -6.22 6.3 -6.22 c3.78 0 6.3 2.54 6.3 6.22 c0 3.8 -2.64 6.22 -6.3 6.22 z M116.596 7.76 l9.1 0 l0 2.78 l-6.1 0 l0 1.96 l4.9 0 l0 2.78 l-4.9 0 l0 4.72 l-3 0 l0 -12.24 z M130.1855 7.76 l9.1 0 l0 2.78 l-6.1 0 l0 1.96 l4.9 0 l0 2.78 l-4.9 0 l0 4.72 l-3 0 l0 -12.24 z M143.77499999999998 7.76 l9.1 0 l0 2.78 l-6.1 0 l0 1.96 l4.9 0 l0 2.78 l-4.9 0 l0 1.94 l6.1 0 l0 2.78 l-9.1 0 l0 -12.24 z M157.36449999999996 7.76 l9.1 0 l0 2.78 l-6.1 0 l0 1.96 l4.9 0 l0 2.78 l-4.9 0 l0 1.94 l6.1 0 l0 2.78 l-9.1 0 l0 -12.24 z M181.14349999999996 13.26 l0 6.74 l-3 0 l0 -12.24 l3 0 l3.82 6.76 l3.82 -6.76 l3 0 l0 12.24 l-3 0 l0 -6.74 l-2.32 3.98 l-3 0 z M196.87299999999996 7.76 l9.1 0 l0 2.78 l-6.1 0 l0 1.96 l4.9 0 l0 2.78 l-4.9 0 l0 1.94 l6.1 0 l0 2.78 l-9.1 0 l0 -12.24 z M210.46249999999998 7.76 l9.1 0 l0 2.78 l-6.1 0 l0 1.96 l4.9 0 l0 2.78 l-4.9 0 l0 1.94 l6.1 0 l0 2.78 l-9.1 0 l0 -12.24 z M223.33199999999997 7.76 l10.2 0 l0 2.78 l-3.6 0 l0 9.46 l-3 0 l0 -9.46 l-3.6 0 l0 -2.78 z M237.28149999999997 19.7 l0 -2.82 c0.24 0.06 0.54 0.12 0.88 0.16 c0.34 0.06 0.7 0.1 1.08 0.12 s0.76 0.04 1.16 0.06 s0.78 0.04 1.12 0.04 c0.94 0 1.6 -0.06 2 -0.16 c0.38 -0.1 0.58 -0.28 0.58 -0.56 c0 -0.24 -0.18 -0.42 -0.36 -0.56 c-0.66 -0.44 -1.44 -0.62 -2.22 -0.8 c-2.2 -0.44 -4.22 -1.32 -4.22 -3.84 c0 -2.98 2.82 -3.68 5.24 -3.68 c1.34 0 2.7 0.14 4 0.46 l0 2.82 c-0.2 -0.06 -0.46 -0.1 -0.78 -0.16 c-0.34 -0.04 -0.68 -0.08 -1.06 -0.12 c-0.78 -0.08 -1.52 -0.12 -2.3 -0.12 c-0.44 0 -1.36 0 -1.78 0.16 c-0.28 0.1 -0.46 0.22 -0.46 0.54 c0 0.16 0.04 0.3 0.12 0.42 c0.08 0.14 0.22 0.24 0.4 0.34 c0.54 0.3 1.24 0.48 1.84 0.62 c0.5 0.12 1 0.26 1.52 0.4 c1.76 0.48 2.92 1.46 2.92 3.34 c0 3.1 -3.08 3.76 -5.56 3.76 c-1.36 0 -2.78 -0.1 -4.12 -0.42 z M268.22049999999996 16.58 l0 3.08 c-1.24 0.34 -2.48 0.48 -3.76 0.48 c-3.76 0 -6.28 -2.58 -6.28 -6.24 c0 -3.76 2.62 -6.24 6.26 -6.24 c1.26 0 2.58 0.1 3.78 0.48 l0 3.08 c-0.98 -0.48 -2.52 -0.66 -3.6 -0.66 c-2.44 0 -3.44 1 -3.44 3.32 c0 2.46 1.18 3.36 3.46 3.36 c1.02 0 2.68 -0.16 3.58 -0.66 z M278.5299999999999 17.32 c2.18 0 3.3 -1.4 3.3 -3.44 c0 -2.16 -1.2 -3.44 -3.3 -3.44 c-2.2 0 -3.3 1.4 -3.3 3.44 c0 2.12 1.22 3.44 3.3 3.44 z M278.5299999999999 20.1 c-3.76 0 -6.3 -2.56 -6.3 -6.22 c0 -3.78 2.66 -6.22 6.3 -6.22 c3.78 0 6.3 2.54 6.3 6.22 c0 3.8 -2.64 6.22 -6.3 6.22 z M293.7794999999999 20 l-4.3 0 l0 -12.24 l4.3 0 c3.74 0 6.3 2.44 6.3 6.12 c0 3.78 -2.7 6.12 -6.3 6.12 z M292.4794999999999 10.54 l0 6.68 l1.3 0 c2.12 0 3.3 -1.34 3.3 -3.34 c0 -0.46 -0.06 -0.88 -0.18 -1.3 c-0.52 -1.46 -1.66 -2.04 -3.12 -2.04 l-1.3 0 z M304.7289999999999 7.76 l9.1 0 l0 2.78 l-6.1 0 l0 1.96 l4.9 0 l0 2.78 l-4.9 0 l0 1.94 l6.1 0 l0 2.78 l-9.1 0 l0 -12.24 z"></path></g><g id="SvgjsG1098" featureKey="nameLeftFeature-0" transform="matrix(2.8846154904224504,0,0,2.8846154904224504,-2.076922547887749,-7.096154216478578)" fill="#34374c"><path d="M10.76 16.58 l0 3.08 c-1.24 0.34 -2.48 0.48 -3.76 0.48 c-3.76 0 -6.28 -2.58 -6.28 -6.24 c0 -3.76 2.62 -6.24 6.26 -6.24 c1.26 0 2.58 0.1 3.78 0.48 l0 3.08 c-0.98 -0.48 -2.52 -0.66 -3.6 -0.66 c-2.44 0 -3.44 1 -3.44 3.32 c0 2.46 1.18 3.36 3.46 3.36 c1.02 0 2.68 -0.16 3.58 -0.66 z M18.28 17.32 c2.18 0 3.3 -1.4 3.3 -3.44 c0 -2.16 -1.2 -3.44 -3.3 -3.44 c-2.2 0 -3.3 1.4 -3.3 3.44 c0 2.12 1.22 3.44 3.3 3.44 z M18.28 20.1 c-3.76 0 -6.3 -2.56 -6.3 -6.22 c0 -3.78 2.66 -6.22 6.3 -6.22 c3.78 0 6.3 2.54 6.3 6.22 c0 3.8 -2.64 6.22 -6.3 6.22 z M30.740000000000002 20 l-4.3 0 l0 -12.24 l4.3 0 c3.74 0 6.3 2.44 6.3 6.12 c0 3.78 -2.7 6.12 -6.3 6.12 z M29.44 10.54 l0 6.68 l1.3 0 c2.12 0 3.3 -1.34 3.3 -3.34 c0 -0.46 -0.06 -0.88 -0.18 -1.3 c-0.52 -1.46 -1.66 -2.04 -3.12 -2.04 l-1.3 0 z M38.900000000000006 7.76 l9.1 0 l0 2.78 l-6.1 0 l0 1.96 l4.9 0 l0 2.78 l-4.9 0 l0 1.94 l6.1 0 l0 2.78 l-9.1 0 l0 -12.24 z"></path></g><g id="SvgjsG1099" featureKey="inlineSymbolFeature-0" transform="matrix(2.459021621875147,0,0,2.459021621875147,155.6877069555837,0.2876412926222973)" fill="#34374c"><title xmlns="http://www.w3.org/2000/svg">programming</title><path xmlns="http://www.w3.org/2000/svg" d="M197,101l-7.4,23a1.4,1.4,0,0,1-1.3,1h-0.4a1.4,1.4,0,0,1-.9-1.8l7.4-23A1.4,1.4,0,1,1,197,101Zm-14.3,18.5-10.5-7,10.7-8.1a3,3,0,1,0-3.6-4.8l-14,10.7a3,3,0,0,0,.2,4.9l14,9.3A3,3,0,1,0,182.7,119.5Zm36-10.7-14-9.3a3,3,0,0,0-3.3,5l10.5,7-10.7,8.1a3,3,0,0,0,3.6,4.8l14-10.7A3,3,0,0,0,218.7,108.8Z" transform="translate(-164 -99)"></path></g><g id="SvgjsG1100" featureKey="nameRightFeature-0" transform="matrix(2.521008282140125,0,0,2.521008282140125,295.50420117558383,0.579833155087071)" fill="#34374c"><path d="M13.68 5.720000000000001 c3.0266 0 4.54 1.1733 4.54 3.52 c0 1.3467 -0.64666 2.3466 -1.94 3 c0.88 0.25334 1.5367 0.69668 1.97 1.33 s0.65 1.3967 0.65 2.29 c0 1.28 -0.46334 2.29 -1.39 3.03 s-2.1434 1.11 -3.65 1.11 l-6.92 0 l0 -14.28 l6.74 0 z M13.280000000000001 11.5 c1.2667 0 1.9 -0.56666 1.9 -1.7 c0 -1.0933 -0.70666 -1.64 -2.12 -1.64 l-2.98 0 l0 3.34 l3.2 0 z M13.46 17.56 c1.5333 0 2.3 -0.62666 2.3 -1.88 c0 -1.36 -0.74666 -2.04 -2.24 -2.04 l-3.44 0 l0 3.92 l3.38 0 z M28.72 5.720000000000001 c1.2 0 2.1968 0.37 2.99 1.11 s1.19 1.6833 1.19 2.83 c0 1.7867 -0.75334 2.98 -2.26 3.58 l0 0.04 c0.50666 0.14666 0.90332 0.39 1.19 0.73 s0.50332 0.73666 0.64998 1.19 s0.24 1.18 0.28 2.18 c0.05334 1.3067 0.24 2.18 0.56 2.62 l-3.14 0 c-0.17334 -0.44 -0.30668 -1.2667 -0.40002 -2.48 c-0.10666 -1.28 -0.34 -2.1166 -0.7 -2.51 s-0.94666 -0.59 -1.76 -0.59 l-3.16 0 l0 5.58 l-3.14 0 l0 -14.28 l7.7 0 z M27.62 12.18 c0.66666 0 1.19 -0.15 1.57 -0.45 s0.57 -0.83 0.57 -1.59 c0 -0.72 -0.18666 -1.23 -0.56 -1.53 s-0.90668 -0.45 -1.6 -0.45 l-3.44 0 l0 4.02 l3.46 0 z M46.14 5.720000000000001 l0 2.64 l-7.54 0 l0 3.06 l6.92 0 l0 2.44 l-6.92 0 l0 3.5 l7.7 0 l0 2.64 l-10.84 0 l0 -14.28 l10.68 0 z M50.24 5.720000000000001 l2.26 9.72 l0.04 0 l2.48 -9.72 l2.94 0 l2.44 9.84 l0.04 0 l2.34 -9.84 l3.08 0 l-3.84 14.28 l-3.12 0 l-2.42 -9.72 l-0.04 0 l-2.38 9.72 l-3.18 0 l-3.78 -14.28 l3.14 0 z"></path></g>
			</g>
		</svg>
	